# xmcd
#
# Track frame offsets: 
#        150
#        16915
#        40151
#        59503
#        76457
#        103089
#        120184
#        138460
#        155245
#        180828
#        200578
#        216942
#        239205
#
# Disc length: 3430 seconds
#
# Revision: 0
# Processed by: cddbd v1.5.2PL0 Copyright (c) Steve Scherf et al.
# Submitted via: ExactAudioCopyFreeDBPlugin 1.0
#
DISCID=b70d640d
DTITLE=Johnny Boots - All Or Nothing
DYEAR=2012
DGENRE=Blues
TTITLE0=Stone Cold
TTITLE1=Want, Need , Love
TTITLE2=Crossroads
TTITLE3=All or Nothing
TTITLE4=Death Letter Blues
TTITLE5=Someone Like You
TTITLE6=It Takes A Big Girl to Cry
TTITLE7=Actions Speak Louder
TTITLE8=John The Revelator
TTITLE9=Shake Your Moneymaker
TTITLE10=Strings Attached
TTITLE11=Hosanna
TTITLE12=Rodeo Girl
EXTD=
EXTT0=
EXTT1=
EXTT2=
EXTT3=
EXTT4=
EXTT5=
EXTT6=
EXTT7=
EXTT8=
EXTT9=
EXTT10=
EXTT11=
EXTT12=
PLAYORDER=
